<?xml version="1.0" encoding="utf-8"?>
<!-- Generator: Adobe Illustrator 28.0.0, SVG Export Plug-In . SVG Version: 6.00 Build 0)  -->
<svg version="1.1" id="Layer_2_00000135668326914288962170000009216799339751316361_"
	 xmlns="http://www.w3.org/2000/svg" xmlns:xlink="http://www.w3.org/1999/xlink" x="0px" y="0px" viewBox="0 0 379.3 268.7"
	 style="enable-background:new 0 0 379.3 268.7;" xml:space="preserve">
<style type="text/css">
	.st0{fill:#141111;}
	.st1{fill:#F16349;}
	.st2{fill:#FFFFFF;}
</style>
<path class="st0" d="M137.9,0c3,0,6,0,9.1,0c0.1,0.1,0.3,0.2,0.4,0.2c7.2,0.4,14,2.5,20.3,6c4.8,2.7,7.6,6.5,6.8,12.3
	c-0.1,1,0.2,1.5,1.3,1.7c6.9,1.5,13.7,2.9,20.6,4.4c2.2,0.5,4.4,1,6.6,1.4c2.2-5.1,4.2-7.4,8.7-9.5c1.8-0.9,3.8-1.6,5.7-2.1
	c6.7-1.9,13.6-2.2,20.5-2.7c8-0.5,16,0.1,23.9,1.6c4.2,0.8,8.2,2.2,11.5,5c1.9,1.6,3.1,3.5,3.5,6c0.2,1.4,0.4,2.8,0.4,4.2
	c0,4.5,0,9.1,0,13.7c0.9,0.2,1.8,0.4,2.6,0.6c13.9,3.1,27.8,6.1,41.7,9.2c13.8,3,27.6,6.1,41.4,9.2c3.5,0.8,7.1,1.3,10.4,2.8
	c0.9,0.4,2,0.6,3,0.9c0.4,0.1,0.9,0.4,1,0.7c0.7,1.4,1.3,2.9,1.9,4.4v9c-0.1,0.3-0.2,0.7-0.2,1c-0.1,26.9-0.1,53.7-0.2,80.6
	c0,21.5,0,43-0.1,64.5c0,0.7-0.2,1.5-0.6,1.9c-0.6,0.7-1.4,1.4-2.3,1.7c-2.1,0.8-4.3,1.4-6.5,2c-17.8,5.1-35.6,10.1-53.4,15.2
	c-26,7.4-52.1,14.8-78.1,22.1c-1.4,0.4-2.9,0.6-4.4,0.6c-2.7,0-5.2-0.5-7.7-1.6c-2.1-0.8-4.3-1.3-6.4-1.9
	c-30.6-8.8-61.2-17.6-91.8-26.4c-33.8-9.7-67.7-19.4-101.5-29.1C20,208,14,206.4,8.1,204.7c-1.9-0.6-4-1-5.5-2.5
	c-1.3-1.3-2.3-2.6-2.3-4.7c0.1-7.8,0-15.6-0.1-23.3c-0.1-16.4-0.2-32.9-0.2-49.3C0,107,0,89.2,0,71.3C0,64,0,56.7,0.1,49.4
	c0-2,0.9-3.5,2.7-3.8c1.5-0.3,2.6-1.1,3.9-1.8c1.5-0.8,3.3-1.2,5-1.5c6.8-1.3,13.6-2.5,20.5-3.6c7.1-1.2,14.1-2.4,21.2-3.6
	c7.3-1.2,14.6-2.4,22-3.6c7.5-1.2,15-2.4,22.5-3.6c1.4-0.2,1.6-0.4,1.6-1.8c0-3.2,0-6.4,0.1-9.5c0-1.2,0.2-2.4,0.6-3.5
	c1.1-3.6,3.7-5.7,6.8-7.5c4.7-2.6,9.7-3.7,15-4.1s10.5-0.9,15.8-1.3C137.7,0.2,137.8,0.1,137.9,0z M8.2,55.3c0,0.5,0,0.8,0,1.2
	c0,17.2,0.1,34.4,0.1,51.6c0.1,18.6,0.1,37.2,0.2,55.8c0,9.7,0.1,19.5,0.1,29.2c0,2.4,0.7,3.4,3.1,4c25.7,7.4,51.5,14.7,77.2,22.2
	c41.3,11.9,82.6,23.9,123.9,35.9c4.5,1.3,9,2.6,13.6,4c0-0.5,0-0.9,0-1.3c-0.1-13.3-0.2-26.6-0.3-39.9c-0.1-16.3-0.3-32.6-0.4-48.9
	c-0.1-13.1-0.2-26.3-0.3-39.5c0-5.3-0.1-10.7-0.1-16c0-1.6-0.1-1.7-1.5-2.1c-1.1-0.3-2.2-0.6-3.3-0.8C178,99.6,135.6,88.6,93.1,77.5
	c-25.4-6.6-50.8-13.3-76.2-19.9C14,56.8,11.1,56.1,8.2,55.3L8.2,55.3z M233.5,111.7c0.4,49.8,0.9,99.4,1.3,149.2
	c0.5-0.1,0.9-0.2,1.3-0.4c26.6-7.6,53.1-15.3,79.7-22.9c17.4-5,34.8-10,52.2-15c1.9-0.6,2.2-1,2.2-2.8c0-8.2,0-16.4,0-24.6
	c0.1-18.8,0.3-37.5,0.4-56.3c0.1-20.9,0.2-41.9,0.3-62.8c0-0.4,0-0.8,0-1.3C325,87.2,279.3,99.4,233.5,111.7L233.5,111.7z
	 M18.5,48.8c0,0.1,0,0.1,0,0.2c1.5,0.4,3,0.8,4.5,1.2c32.7,8.6,65.4,17.2,98.1,25.8c34.1,9,68.2,18,102.2,27c3.4,0.9,6.7,0.9,10,0
	c9.6-2.6,19.2-5.2,28.9-7.8c32.3-8.6,64.7-17.3,97-25.9c0.4-0.1,0.7-0.2,1.4-0.5c-27.9-6-55.6-12-83.3-18c-0.2,3.9-0.4,7.7-0.6,11.4
	c-0.1,1.7-0.2,3.4-0.4,5.1c-0.2,1.4-0.9,2.6-2.4,3c-2.2,0.6-4-0.8-4.2-3.3c-0.1-1.7,0-3.3,0-5c0.1-6.6,0.2-13.2,0.2-19.7
	c0-1.3-0.1-2.7-0.2-4.1c-4.9,3.1-7.7,4.3-11.9,5c-8.2,1.5-16.5,1.7-24.9,1.6c-5.8-0.1-11.4-0.8-16.9-2.6c-1.8-0.6-3.5-1.2-5.4-1.8
	c-0.2,4.1-0.4,8.1-0.6,12.1c-0.1,2-0.3,4-0.6,6c-0.3,1.9-1.5,2.8-3.4,2.8c-1.5,0.1-2.7-0.8-3.2-2.7c-0.4-1.5-0.6-3-0.6-4.6
	c0-5.8,0.1-11.6,0.1-17.4c0-1.7-0.3-2.1-1.9-2.5c-6.3-1.4-12.6-2.7-18.8-4.1c-2.4-0.5-4.9-1-7.4-1.5c0,3.4,0.1,6.5,0,9.7
	c0,1.6-0.2,3.2-0.5,4.7c-0.4,1.9-1.7,2.9-3.3,2.8c-1.6,0-3.1-1.2-3.3-3.1c-0.3-2.7-0.3-5.5-0.4-8.2c-0.1-2.6,0-5.2,0-7.8
	c-20.2,4.1-40,3.4-59.6-2.6c0,3.3,0,6.5,0,9.8c0,2.8,0.1,5.6,0.1,8.4c0,2.1-1.3,3.5-3.1,3.7c-1.8,0.2-3.1-0.9-3.7-3
	c-0.2-0.7-0.3-1.4-0.3-2.1c-0.1-1.6-0.2-3.2-0.3-5C72.6,40.2,45.5,44.5,18.5,48.8L18.5,48.8z M234.9,36.4c7.1,0.3,14.1-0.6,21.2-1.5
	c4.7-0.6,8.6-3,11.6-6.5c1.5-1.8,1.1-3.3-1-4.4c-4.7-2.5-9.7-3.6-15-3.8c-4.9-0.2-9.8-0.3-14.7,0c-5.5,0.4-10.9,1.2-16.4,2
	c-2.6,0.4-5,1.4-7.1,3c-2.7,2.1-2.5,6.1,0.5,7.3c2.4,1,4.8,1.9,7.3,2.6C225.8,36.3,230.4,36.3,234.9,36.4L234.9,36.4z M134.2,7.2
	c-1.9,0.1-5,0.2-8.1,0.5c-3.7,0.3-7.5,0.6-11,1.9c-2.1,0.8-4.3,1.7-6.2,2.9s-1.8,2.8,0.2,3.9c1.2,0.7,2.5,1.2,3.8,1.6
	c6.1,1.8,12.4,2.4,18.7,2.7c2.4,0.1,4.7,0.2,7.1,0.3c2.9,0.1,5.8,0.3,8.6,0.1c3.9-0.2,7.7-0.7,11.5-1.3c2.2-0.4,4.3-1.1,6.3-2
	c1.4-0.6,1.6-1.6,0.6-2.8c-0.7-0.8-1.5-1.7-2.5-2.1c-3.3-1.4-6.7-2.8-10.2-3.8C147.3,7.5,141.3,7.2,134.2,7.2L134.2,7.2z"/>
<path class="st1" d="M8.2,55.3c3,0.8,5.8,1.5,8.7,2.2c25.4,6.6,50.8,13.3,76.2,19.9c42.4,11.1,84.9,22.2,127.3,33.2
	c1.1,0.3,2.2,0.6,3.3,0.8c1.4,0.4,1.5,0.5,1.5,2.1c0,5.3,0.1,10.7,0.1,16c0.1,13.1,0.2,26.3,0.3,39.5c0.1,16.3,0.3,32.6,0.4,48.9
	c0.1,13.3,0.2,26.6,0.3,39.9c0,0.4,0,0.8,0,1.3c-4.6-1.3-9.1-2.7-13.6-4c-41.3-12-82.6-24-123.9-35.9c-25.7-7.4-51.5-14.8-77.2-22.2
	c-2.4-0.7-3.1-1.6-3.1-4c0-9.7-0.1-19.5-0.1-29.2c-0.1-18.6-0.1-37.2-0.2-55.8C8.2,91,8.2,73.8,8.2,56.6C8.2,56.2,8.2,55.8,8.2,55.3
	L8.2,55.3z M184.6,187.6c0,0.8,0.1,1.7,0,2.5c-1,6.8-4.3,12.1-10.2,15.7c-5.5,3.3-11.3,3.9-17.1,0.5c-3-1.7-5.1-4.3-6.8-7.3
	c-1.8-3.1-5.1-4.6-8.1-3.6c-3.1,0.9-4.9,3.8-4.7,7.3c0.1,2.4,1,4.5,2.3,6.5c7.2,11.2,20,15.5,31.6,13.1c9.1-1.9,16.1-6.8,21.2-14.4
	c5.7-8.5,7.6-17.8,5.3-27.8c-1.9-8.2-6.9-14.3-13.6-19.1c-4.9-3.5-10.4-5.5-16-7.2c-3.5-1.1-7-2.4-10.4-3.8
	c-2.7-1.1-3.9-3.4-3.7-6.2c0.2-3.5,0.9-7,2.2-10.2c0.9-2.2,2.2-4.1,4.4-5c4.8-1.8,9.6-2.2,14.2,0.6c2,1.2,3.7,3,5.5,4.5
	c1.2,1,2.3,2.2,3.6,3c1.9,1.3,4.2,0.9,5.8-0.8c1.8-1.9,1.9-4.1,1.3-6.4c-1.2-4.6-3.9-8.1-7.6-10.9c-7-5.2-15-6.3-23.3-4.5
	c-8.6,1.8-14,7.4-17.1,15.5c-1.5,4.1-2.1,8.4-2.7,12.7c-0.3,2.6-0.2,5.1,0.5,7.5c1.9,6.2,6,10.5,11.8,13.2c3.2,1.5,6.7,2.6,10.1,3.8
	c4.6,1.6,9.2,3.2,13.3,5.9C181.8,176.2,184.8,181.1,184.6,187.6L184.6,187.6z M63,170.3c-0.2-0.5-0.4-0.8-0.5-1
	c-2.8-7.6-5.9-15.1-8.4-22.8c-5.3-16.4-10.3-32.8-15.5-49.2c-0.8-2.5-1.4-5.1-3.1-7.3c-1.7-2.2-3.8-3.3-6.6-2.6
	c-2.6,0.6-4.3,2.2-5,4.9c-0.5,1.9-0.3,3.9,0.3,5.8c4.9,16.2,9.8,32.3,14.9,48.5c4.6,14.6,10,28.9,15.9,43.1c1.4,3.3,4.2,5.3,7.5,5.1
	c3-0.1,5.1-1.8,6.4-4.3c5.1-10,10-20,15.1-30.1c8-15.9,16-31.8,24-47.8c1.1-2.1,2-4.4,2.5-6.8c1-4.2-2.9-8.1-7.1-7
	c-1.3,0.4-2.6,1.3-3.7,2.2c-2.3,1.9-3.4,4.7-4.9,7.3c-7.7,13.4-14.3,27.3-21.2,41.1C70.1,156.3,66.6,163.2,63,170.3L63,170.3z
	 M123,178.2L123,178.2c0-7.2,0-14.4-0.1-21.6c0-2.5-0.3-5-0.6-7.4c-0.4-2.7-2.2-4.5-4.7-4.9c-2.8-0.4-5.1,0.8-6.3,3.3
	c-0.4,0.9-0.9,1.8-1,2.8c-0.4,3.2-0.9,6.4-1,9.7c-0.2,13.2-0.3,26.4-0.4,39.6c0,2.1,0.2,4.2,1.2,6.2c1.4,2.9,4.7,4.4,7.8,3.5
	c3.1-0.9,5.2-4,5.2-7.6C123,193.9,123,186,123,178.2L123,178.2z M120.2,113.4c-4.3,0-7.8,3.6-7.8,8.1c0,4.5,3.8,8.4,8.2,8.4
	c4.3,0,7.6-3.6,7.5-8.3C128.2,117.1,124.6,113.4,120.2,113.4L120.2,113.4z"/>
<path class="st1" d="M233.6,111.7c45.7-12.2,91.5-24.5,137.4-36.8c0,0.5,0,0.9,0,1.3c-0.1,20.9-0.2,41.9-0.3,62.8
	c-0.1,18.8-0.3,37.5-0.4,56.3c0,8.2,0,16.4,0,24.6c0,1.8-0.3,2.2-2.2,2.8c-17.4,5-34.8,10-52.2,15c-26.5,7.6-53.1,15.3-79.7,22.9
	c-0.4,0.1-0.7,0.2-1.3,0.4C234.4,211.1,234,161.4,233.6,111.7z M282.1,172L282.1,172c0,14.4,0,28.9,0,43.4c0,1.6,0.2,3.2,0.5,4.8
	c0.3,1.7,1.7,2.6,3.4,2.7c1.9,0.1,3.4-0.8,3.8-2.5c0.4-1.3,0.6-2.8,0.6-4.1c0.1-14.9,0.2-29.9,0.3-44.9c0-13.6,0-27.1,0-40.7
	c0-1.8,0-3.6-0.2-5.3c-0.3-2.3-2.2-3.6-4.5-3.5c-2,0.1-3.6,2-3.7,4.1c0,1.3-0.1,2.7-0.1,4C282.2,144,282.2,158,282.1,172L282.1,172z
	 M331.1,159.5c0,0-0.1,0-0.1,0c0-15.3,0-30.6,0-45.9c0-0.4,0-0.8-0.1-1.1c-0.6-1.7-2.1-2.9-3.8-2.9c-1.8,0-3.4,1-3.9,3
	c-0.4,1.4-0.5,2.8-0.4,4.2c0,14.8,0.1,29.6,0.2,44.4c0,4.7,0,9.4,0,14.2c0.1,10.5,0.2,20.9,0.3,31.4c0,2.1,1.5,3.7,3.5,3.9
	c2,0.2,3.4-0.8,3.9-3.1c0.4-1.8,0.5-3.6,0.5-5.4C331.2,188,331.1,173.7,331.1,159.5L331.1,159.5z M350,170.5
	C350,170.5,350,170.5,350,170.5c0.1-9.2,0.2-18.4,0.2-27.6c0-1.6,0.1-3.2-0.1-4.8c-0.3-2.1-1.9-3.6-3.7-3.6
	c-2.2-0.1-3.8,1.1-4.4,3.3c-0.2,0.9-0.2,2-0.2,2.9c-0.2,10.7,0.4,21.4-0.3,32.1c-0.1,1.5,0,3.1,0,4.6c0,8.4,0,16.8,0,25.2
	c0,2.4,1.4,4.2,3.3,4.4c2.4,0.2,3.9-0.9,4.4-3.5c0.1-0.7,0.2-1.4,0.3-2C349.7,191.1,349.9,180.8,350,170.5L350,170.5z M310.9,191.9
	c0.1,0,0.3,0,0.4,0c0-6,0-12,0-18c0-1-0.3-2-0.7-2.9c-0.7-1.5-2.1-2.1-3.8-2c-1.5,0.1-2.6,0.9-3.1,2.3c-0.4,1.1-0.7,2.2-0.7,3.4
	c-0.1,6.7-0.2,13.5-0.2,20.2c0,5.8,0,11.6,0,17.5c0,1.1,0.1,2.1,0.4,3.1c0.5,2,2,3,4.1,2.9c1.7-0.1,3.2-1.6,3.3-3.4
	c0.2-1.9,0.3-3.8,0.4-5.6C310.9,203.4,310.9,197.7,310.9,191.9L310.9,191.9z M267.5,206.2L267.5,206.2c0.1-6,0.1-12,0.1-18
	c0-0.7,0-1.4-0.1-2.1c-0.2-2.1-1.9-3.7-3.8-3.8c-2.3-0.1-4,1.2-4.4,3.4c-0.2,1-0.2,2-0.2,3c0,10.8,0.1,21.5,0.2,32.3
	c0,1.2-0.1,2.4,0,3.6c0.1,1.5,0.3,3,0.8,4.4c0.5,1.5,1.8,2.1,3.3,2.1c1.5,0,2.7-0.6,3.2-2c0.4-1.2,0.8-2.6,0.8-3.9
	C267.5,218.9,267.5,212.6,267.5,206.2L267.5,206.2z"/>
<path class="st1" d="M18.5,48.8c27.1-4.3,54.2-8.5,81.4-12.8c0.1,1.7,0.2,3.3,0.3,5c0.1,0.7,0.2,1.4,0.3,2.1c0.6,2.1,1.9,3.2,3.7,3
	c1.8-0.2,3.1-1.6,3.1-3.7c0.1-2.8-0.1-5.6-0.1-8.4c0-3.2,0-6.5,0-9.8c19.6,6,39.4,6.7,59.6,2.6c0,2.6,0,5.2,0,7.8
	c0.1,2.7,0.1,5.5,0.4,8.2c0.2,1.9,1.6,3.1,3.3,3.1c1.6,0,2.9-0.9,3.3-2.8c0.3-1.5,0.5-3.1,0.5-4.7c0.1-3.2,0-6.4,0-9.7
	c2.6,0.5,5,1,7.4,1.5c6.3,1.3,12.6,2.7,18.8,4.1c1.6,0.3,2,0.8,1.9,2.5c-0.1,5.8-0.1,11.6-0.1,17.4c0,1.5,0.2,3.1,0.6,4.6
	c0.4,1.8,1.6,2.7,3.2,2.7c1.9-0.1,3-0.9,3.4-2.8c0.4-2,0.5-4,0.6-6c0.3-4,0.4-8,0.6-12.1c1.8,0.6,3.6,1.3,5.4,1.8
	c5.5,1.8,11.1,2.5,16.9,2.6c8.3,0.2,16.6-0.1,24.9-1.6c4.2-0.8,7-2,11.9-5c0.1,1.4,0.2,2.8,0.2,4.1c0,6.6-0.1,13.2-0.2,19.7
	c0,1.7-0.1,3.4,0,5c0.2,2.5,2,3.9,4.2,3.3c1.5-0.4,2.1-1.6,2.4-3c0.2-1.7,0.3-3.4,0.4-5.1c0.2-3.8,0.4-7.5,0.6-11.4
	c27.8,6,55.4,11.9,83.3,18c-0.6,0.2-1,0.4-1.4,0.5c-32.3,8.6-64.7,17.3-97,25.9c-9.6,2.6-19.3,5.2-28.9,7.8c-3.4,0.9-6.7,0.9-10,0
	c-34.1-9-68.2-18.1-102.2-27c-32.7-8.6-65.4-17.2-98.1-25.8c-1.5-0.4-3-0.8-4.5-1.2C18.4,48.9,18.4,48.8,18.5,48.8L18.5,48.8z
	 M136.4,58.8c5-0.1,10-0.6,15-1.8c1.7-0.4,3.4-1,5-1.7c1.2-0.6,1.9-1.7,1.6-3.2c-0.4-2-1.9-3-4.3-2.7c-3.3,0.5-6.6,0.9-9.9,1.5
	c-6.1,1-12.1,1.2-18.1-0.2c-1.5-0.3-3.1-0.5-4.6-0.4c-1.2,0-2.1,0.9-2.4,2c-0.3,1.2,0,2.2,1,3c0.7,0.5,1.5,1,2.3,1.3
	C126.4,58.2,131.3,58.7,136.4,58.8L136.4,58.8z M235,79c0.6-0.1,1.5-0.1,2.4-0.2c1.9-0.4,3.2-2,3-3.7c-0.1-1.8-1.6-3.3-3.4-3.5
	c-2.1-0.2-4.2-0.4-6.2-0.6c-5.4-0.6-10.7-1.9-15.3-5.1c-1.1-0.7-2.3-1.2-3.5-1.7c-1.3-0.5-2.6,0.1-3.5,1.2c-0.9,1.1-0.9,2.4-0.2,3.6
	c0.4,0.6,0.9,1.2,1.5,1.7c2.1,1.9,4.5,3.4,7.1,4.6C222.6,77.8,228.6,78.6,235,79L235,79z M263.5,69.2c-1.4,0-3.5,0.8-4.7,1.8
	s-1.5,2.3-0.9,3.6c0.6,1.3,2.5,2.4,3.7,2c1.3-0.4,2.5-1,3.7-1.7c1.2-0.7,1.5-2,1.1-3.4C266,70.2,264.9,69.2,263.5,69.2L263.5,69.2z
	 M249.6,71.3c-2,0-3.5,1.4-3.5,3.4c0,2.2,1.7,3.9,3.9,3.9c1.9,0,3.6-1.6,3.7-3.4C253.7,73.3,251.6,71.3,249.6,71.3L249.6,71.3z
	 M113.2,46c-2,0-3.4,1.4-3.4,3.4c0,2,1.4,3.4,3.4,3.4c2,0,3.4-1.4,3.4-3.5C116.6,47.4,115.2,46,113.2,46L113.2,46z M159.5,48.9
	c0,1.9,1.3,3.2,3.2,3.3c2,0,3.4-1.4,3.4-3.4c0-1.9-1.5-3.4-3.4-3.3C160.9,45.5,159.5,47,159.5,48.9L159.5,48.9z"/>
<path class="st1" d="M234.9,36.4c-4.5-0.1-9.1,0-13.4-1.2c-2.5-0.7-4.9-1.6-7.3-2.6c-3-1.3-3.2-5.3-0.5-7.3c2.1-1.6,4.5-2.6,7.1-3
	c5.4-0.8,10.9-1.6,16.4-2c4.9-0.3,9.8-0.2,14.7,0c5.2,0.2,10.3,1.2,15,3.8c2,1.1,2.5,2.6,1,4.4c-3.1,3.6-7,6-11.6,6.5
	C249,35.8,242,36.7,234.9,36.4L234.9,36.4z"/>
<path class="st1" d="M134.2,7.2c7.1,0.1,13.1,0.3,18.8,1.9c3.5,1,6.8,2.4,10.2,3.8c1,0.4,1.8,1.3,2.5,2.1c1,1.1,0.9,2.2-0.6,2.8
	c-2.1,0.8-4.2,1.6-6.3,2c-3.8,0.6-7.7,1.1-11.5,1.3c-2.9,0.2-5.7-0.1-8.6-0.1c-2.4-0.1-4.7-0.2-7.1-0.3c-6.3-0.3-12.6-1-18.7-2.7
	c-1.3-0.4-2.6-0.9-3.8-1.6c-2-1.1-2.1-2.7-0.2-3.9c1.9-1.2,4.1-2.1,6.2-2.9c3.5-1.3,7.3-1.5,11-1.9C129.2,7.3,132.3,7.3,134.2,7.2
	L134.2,7.2z"/>
<path class="st2" d="M184.6,187.6c0.2-6.5-2.8-11.4-8.1-15c-4.1-2.8-8.7-4.3-13.3-5.9c-3.4-1.2-6.9-2.2-10.1-3.8
	c-5.7-2.7-9.9-7-11.8-13.2c-0.7-2.4-0.9-5-0.5-7.5c0.5-4.3,1.2-8.6,2.7-12.7c3-8.1,8.5-13.7,17.1-15.5c8.3-1.8,16.3-0.7,23.3,4.5
	c3.7,2.8,6.4,6.3,7.6,10.9c0.6,2.3,0.5,4.6-1.3,6.4c-1.6,1.6-3.9,2-5.8,0.8c-1.3-0.9-2.4-2-3.6-3c-1.8-1.5-3.5-3.3-5.5-4.5
	c-4.6-2.8-9.4-2.4-14.2-0.6c-2.3,0.9-3.5,2.8-4.4,5c-1.4,3.3-2,6.7-2.2,10.2c-0.2,2.9,1,5.1,3.7,6.2c3.4,1.4,6.9,2.8,10.4,3.8
	c5.7,1.8,11.2,3.7,16,7.2c6.7,4.8,11.7,10.9,13.6,19.1c2.3,10,0.3,19.3-5.3,27.8c-5.1,7.6-12.1,12.6-21.2,14.4
	c-11.6,2.4-24.4-1.9-31.6-13.1c-1.3-2-2.1-4.1-2.3-6.5c-0.2-3.6,1.6-6.4,4.7-7.3c3.1-0.9,6.4,0.5,8.1,3.6c1.7,2.9,3.8,5.6,6.8,7.3
	c5.8,3.4,11.5,2.8,17.1-0.5c5.9-3.6,9.2-8.9,10.2-15.7C184.7,189.3,184.6,188.4,184.6,187.6L184.6,187.6z"/>
<path class="st2" d="M63,170.3c3.6-7.1,7.1-14.1,10.6-21c6.8-13.8,13.5-27.7,21.2-41.1c1.4-2.5,2.6-5.3,4.9-7.3
	c1.1-0.9,2.4-1.8,3.7-2.2c4.2-1.1,8.2,2.7,7.1,7c-0.6,2.3-1.4,4.6-2.5,6.8c-7.9,15.9-16,31.9-24,47.8c-5,10-10,20.1-15.1,30.1
	c-1.3,2.6-3.4,4.2-6.4,4.3c-3.4,0.1-6.1-1.8-7.5-5.1c-6-14.1-11.3-28.4-15.9-43.1C34,130.4,29.1,114.2,24.2,98
	c-0.6-1.9-0.8-3.8-0.3-5.8c0.7-2.6,2.3-4.3,5-4.9c2.8-0.6,4.9,0.5,6.6,2.6c1.7,2.1,2.3,4.8,3.1,7.3c5.2,16.4,10.2,32.9,15.5,49.2
	c2.5,7.7,5.6,15.2,8.4,22.8C62.6,169.6,62.8,169.8,63,170.3L63,170.3z"/>
<path class="st2" d="M123,178.2c0,7.8,0,15.7,0,23.5c0,3.6-2.1,6.7-5.2,7.6c-3.1,0.9-6.4-0.6-7.8-3.5c-0.9-2-1.2-4.1-1.2-6.2
	c0.1-13.2,0.2-26.4,0.4-39.6c0.1-3.2,0.6-6.5,1-9.7c0.1-0.9,0.6-1.9,1-2.8c1.2-2.5,3.6-3.7,6.3-3.3c2.5,0.4,4.4,2.2,4.7,4.9
	c0.3,2.5,0.6,5,0.6,7.4C123,163.8,122.9,171,123,178.2L123,178.2L123,178.2z"/>
<path class="st2" d="M120.2,113.4c4.4,0,8,3.7,8,8.2c0,4.7-3.2,8.3-7.6,8.3c-4.4,0-8.2-3.8-8.2-8.4
	C112.5,117,115.9,113.4,120.2,113.4L120.2,113.4z"/>
<path class="st2" d="M282.1,172c0-14,0-28,0-42c0-1.3,0.1-2.7,0.1-4c0.1-2.2,1.7-4,3.7-4.1c2.4-0.2,4.3,1.2,4.5,3.5
	c0.2,1.8,0.2,3.6,0.2,5.3c0,13.6,0,27.1,0,40.7c0,14.9-0.1,29.9-0.3,44.9c0,1.4-0.2,2.8-0.6,4.1c-0.4,1.7-1.9,2.5-3.8,2.5
	c-1.7,0-3.1-1-3.4-2.7c-0.3-1.6-0.5-3.2-0.5-4.8C282.1,201,282.1,186.5,282.1,172L282.1,172L282.1,172z"/>
<path class="st2" d="M331.1,159.5c0,14.2,0,28.5,0,42.7c0,1.8-0.2,3.6-0.5,5.4c-0.5,2.3-1.9,3.3-3.9,3.1c-1.9-0.2-3.5-1.8-3.5-3.9
	c-0.1-10.5-0.2-20.9-0.3-31.4c0-4.7,0-9.4,0-14.2c0-14.8-0.1-29.6-0.2-44.4c0-1.4,0.1-2.9,0.4-4.2c0.5-2,2.1-3,3.9-3
	c1.7,0,3.2,1.2,3.8,2.9c0.1,0.3,0.1,0.7,0.1,1.1c0,15.3,0,30.6,0,45.9C331,159.5,331.1,159.5,331.1,159.5L331.1,159.5z"/>
<path class="st2" d="M350,170.5c-0.2,10.3-0.3,20.6-0.5,30.9c0,0.7-0.1,1.4-0.3,2c-0.6,2.6-2,3.8-4.4,3.5c-1.9-0.2-3.3-2.1-3.3-4.4
	c0-8.4,0-16.8,0-25.2c0-1.5-0.1-3.1,0-4.6c0.7-10.7,0.1-21.4,0.3-32.1c0-1,0-2,0.2-2.9c0.5-2.3,2.1-3.4,4.4-3.3
	c1.8,0.1,3.4,1.6,3.7,3.6c0.2,1.6,0.2,3.2,0.1,4.8C350.1,152.1,350,161.3,350,170.5C349.9,170.5,350,170.5,350,170.5L350,170.5z"/>
<path class="st2" d="M310.8,191.9c0,5.8,0,11.6,0,17.4c0,1.9-0.2,3.8-0.4,5.6c-0.2,1.9-1.6,3.3-3.3,3.4c-2.1,0.1-3.7-0.9-4.1-2.9
	c-0.2-1-0.4-2.1-0.4-3.1c0-5.8,0-11.6,0-17.5c0-6.7,0.1-13.5,0.2-20.2c0-1.1,0.3-2.3,0.7-3.4c0.5-1.4,1.6-2.2,3.1-2.3
	c1.7-0.1,3.1,0.5,3.8,2c0.4,0.9,0.7,1.9,0.7,2.9c0.1,6,0,12,0,18C311.1,191.9,311,191.9,310.8,191.9L310.8,191.9z"/>
<path class="st2" d="M267.5,206.2c0,6.3,0,12.7,0,19c0,1.3-0.4,2.6-0.8,3.9c-0.5,1.4-1.7,2-3.2,2c-1.5,0-2.8-0.6-3.3-2.1
	c-0.5-1.4-0.6-2.9-0.8-4.4c-0.1-1.2,0-2.4,0-3.6c-0.1-10.8-0.1-21.5-0.2-32.3c0-1,0-2,0.2-3c0.4-2.2,2.1-3.5,4.4-3.4
	c1.9,0.1,3.5,1.7,3.8,3.8c0.1,0.7,0.1,1.4,0.1,2.1C267.5,194.2,267.5,200.2,267.5,206.2L267.5,206.2L267.5,206.2z"/>
<path class="st0" d="M136.4,58.8c-5.1,0-10-0.6-14.7-2.3c-0.8-0.3-1.6-0.8-2.3-1.3c-0.9-0.7-1.3-1.8-1-3c0.3-1.2,1.3-2,2.4-2
	c1.5,0,3.1,0.1,4.6,0.4c6,1.4,12.1,1.3,18.1,0.2c3.3-0.6,6.6-1,9.9-1.5c2.4-0.3,3.9,0.7,4.3,2.7c0.3,1.5-0.4,2.6-1.6,3.2
	c-1.6,0.7-3.3,1.3-5,1.7C146.4,58.2,141.4,58.7,136.4,58.8L136.4,58.8z"/>
<path class="st0" d="M235,79c-6.4-0.4-12.4-1.1-18.1-3.8c-2.6-1.2-5-2.8-7.1-4.6c-0.6-0.5-1.1-1.1-1.5-1.7c-0.8-1.2-0.7-2.5,0.2-3.6
	c0.8-1.1,2.2-1.6,3.5-1.2c1.2,0.4,2.4,1,3.5,1.7c4.6,3.2,9.9,4.5,15.3,5.1c2.1,0.2,4.1,0.4,6.2,0.6c1.9,0.2,3.3,1.6,3.4,3.5
	c0.1,1.7-1.1,3.3-3,3.7C236.6,78.9,235.7,78.9,235,79L235,79z"/>
<path class="st0" d="M263.5,69.2c1.4,0,2.5,0.9,2.9,2.3c0.4,1.4,0.1,2.8-1.1,3.4c-1.2,0.7-2.4,1.2-3.7,1.7c-1.2,0.4-3.1-0.7-3.7-2
	c-0.6-1.3-0.3-2.5,0.9-3.6C260,70.1,262.1,69.2,263.5,69.2L263.5,69.2z"/>
<path class="st0" d="M249.6,71.3c2.1,0,4.1,2,4.1,3.9c0,1.8-1.8,3.5-3.7,3.4c-2.2,0-3.9-1.8-3.9-3.9
	C246.1,72.8,247.6,71.3,249.6,71.3L249.6,71.3z"/>
<path class="st0" d="M113.2,46c2,0,3.4,1.4,3.4,3.3c0,2-1.4,3.4-3.4,3.5c-2,0-3.4-1.4-3.4-3.4C109.8,47.5,111.2,46,113.2,46
	L113.2,46z"/>
<path class="st0" d="M159.5,48.9c0-2,1.4-3.5,3.3-3.5c1.9,0,3.4,1.4,3.4,3.3c0,2-1.5,3.4-3.4,3.4C160.9,52.2,159.5,50.8,159.5,48.9
	L159.5,48.9z"/>
</svg>
