<?xml version="1.0" encoding="utf-8"?>
<!-- Generator: Adobe Illustrator 28.0.0, SVG Export Plug-In . SVG Version: 6.00 Build 0)  -->
<svg version="1.1" id="Layer_2_00000178197685486643072250000007987693039454601145_"
	 xmlns="http://www.w3.org/2000/svg" xmlns:xlink="http://www.w3.org/1999/xlink" x="0px" y="0px" viewBox="0 0 406.4 450.2"
	 style="enable-background:new 0 0 406.4 450.2;" xml:space="preserve">
<style type="text/css">
	.st0{fill:#0E0D0D;}
	.st1{fill:#FF69B4;}
</style>
<path class="st0" d="M217.5,27.9c3.9-14,25.3-14.4,37.1-15.3c9.8-0.6,19.5,0.2,29,2.4c3.5,0.8,6.6,2.5,9.4,4.8
	c3.2,2.7,3.9,6.4,3.9,10.2c0.1,5.1,0,10.1,0.1,15.2c33,7.2,65.8,14.5,98.8,21.8c2.1,0.5,4,1.5,6,2.3c0.8,0.2,1.9,0,2.2,0.5
	c1.2,1.8,2.2,3.7,2.2,6.2c-0.2,7.4-0.2,14.9-0.2,22.4c-0.2,100.5-0.3,201.1-0.6,301.6c-0.1,3.9-2.2,5.5-6,5.1
	c-0.8-0.1-1.7,0.1-2.5,0.4c-47.6,14.7-95.2,29.5-142.9,44c-3.1,1-5.8,0.9-9-0.2c-79.6-28.6-159.5-56.2-239-84.9
	c-3.9-1.6-5.2-3.5-5.2-7.7c-0.1-27.8-0.2-55.5-0.3-83.3c0-73.7-0.8-147.4-0.5-221.1c0.4-2.4,1.9-3.6,4.2-3.7c0.4,0,0.9,0,1.1-0.2
	c1.8-2.3,4.5-2.5,6.9-3c13.9-2.5,27.8-4.9,41.7-7.2c17-2.8,34.1-5.6,51.1-8.3c1.1-0.2,1.4-0.5,1.4-1.6c0-3.4,0.1-6.9,0.1-10.3
	c0-6.1,3.6-9.8,8.6-12.4c5-2.6,10.5-3.7,16.1-4.1C149,0,163.1-2.5,179.5,6.6c5.1,2.7,8.3,7.1,7.3,13.4c-0.1,0.9,0.2,1.4,1.1,1.5
	C197.7,23.6,207.5,25.7,217.5,27.9z M242.4,277.8c-0.3-52.2-0.9-104.3-1.2-156.5c0-1-0.3-1.5-1.3-1.7C162.7,99.7,85.7,79.2,8.6,59.2
	c0.1,49.4,0.3,98.8,0.5,148.2c0,2,1,3.3,3,3.8C88.9,233.2,165.7,255.2,242.4,277.8L242.4,277.8z M243.8,438.9
	c-0.4-51.1-0.9-102-1.3-152.5c-77.9-22.4-155.6-44.7-233.3-67c0.1,45.1,0.3,90.2,0.4,135.4c0,1.3,0.4,1.8,1.6,2.1
	C88.7,384,166.1,411.8,243.8,438.9L243.8,438.9z M252.8,440.5c47.4-14.4,94.6-29.3,141.9-43.8c1.3-0.4,1.8-0.9,1.8-2.4
	c0-49.1,0-98.2-0.1-147.3c-47.5,13.4-94.9,27.2-142.5,40.5c-1.9,0.5-2.5,1.1-2.5,3.1C252,340.6,252.2,390.5,252.8,440.5L252.8,440.5
	z M251.5,279.6c47.7-13.7,95.4-27.5,143.2-41.2c1.4-0.4,1.8-1,1.8-2.4c-0.2-51.9,0.9-103.8,0.8-155.8
	C348,93.4,299,106.5,250.1,119.6C250.5,173,251,226.2,251.5,279.6L251.5,279.6z M19.5,52.2l0,0.2c73.3,19.3,146.7,38.5,220,58
	c3.4,0.9,6.5,0.9,9.9,0c45.8-12.4,91.2-24.5,137.1-36.7c-30.1-6.5-59.7-12.9-89.5-19.3c-0.5,5.4-0.5,10.7-0.9,16.1
	c-0.2,3.3-1.6,5-3.9,4.9c-2.2-0.1-3.5-1.9-3.4-5.1c0-10,0.7-19.6,0.1-29.6c-4.8,3.7-10.1,5.2-15.7,6c-8.5,1.2-17.1,1.4-25.7,1.1
	c-7.6-0.1-14.9-2-21.9-4.8c-0.2,5.4-0.5,10.7-0.8,15.9c-0.1,1.3-0.2,2.6-0.6,3.9c-0.4,1.7-1.6,2.6-3.4,2.7c-3.7,0.2-4-4.3-4.1-7.1
	c0-6.5-0.1-13.1,0.1-19.6c0-1.5-0.4-1.9-1.8-2.2c-9.5-1.9-18.9-4.3-28.4-6c0,3.1,0.1,6.1,0,9.1c-0.2,3.3,0.4,9.4-4.2,9.3
	c-1.6-0.1-3-1.2-3.4-3.1c-0.2-1-0.4-2-0.4-3.1c0-4.8,0.1-9.6,0-14.4c-19.4,4.6-45,3.7-64-2.8c-0.1,6.4,0.2,12.3,0.3,18.6
	c0,3.2-1.4,5-3.7,5c-5,0-3.9-7.2-4.3-10.8C77.6,43,48.6,47.6,19.5,52.2L19.5,52.2z M258.1,39c3-0.3,8.9-0.8,14.8-1.4
	c5.4-0.6,10-3,13.6-7c1.7-1.8,1.6-3.8-0.5-4.8c-3.1-1.5-6.3-3-9.6-3.5c-12.5-1.9-24.9-1.1-37.3,0.9c-3.8,0.6-7.7,1.6-10.8,4.1
	c-2.6,2.5-2.1,6.6,1.4,7.8c2.3,1,4.7,1.8,7.1,2.5C242.8,39.1,249,38.9,258.1,39z M148.3,22.3c6.7,1,14.2-0.2,21.7-1.2
	c2.2-0.3,4.4-1,6.4-1.9c2.1-0.9,2.2-2.1,0.6-3.7c-0.7-0.7-1.5-1.5-2.4-1.9c-4.3-1.6-8.5-3.7-12.9-4.5c-11.5-2.1-23.2-1.8-34.8,0
	c-5.4,1.1-19,5.7-6.9,9.8C128.9,21.5,138.1,22,148.3,22.3L148.3,22.3z"/>
<path class="st1" d="M176.7,238.9c-11.3-0.5-20.4-5.2-26.7-14.7c-3.1-4.8-4.2-11.8,1.8-14.6c3.3-1.4,6.9-0.1,9.1,3.1
	c12,22.4,40.6,6,36.5-15.9c-2.9-14-19.8-16.8-31.1-21.1c-9.7-3.8-17-12.5-15.5-23.3c0.5-4.6,1.3-9.4,2.9-13.7
	c4.5-12.1,14.8-18.2,27.7-17.2c8.3,0.6,15.2,3.6,20.3,10.4c3,3.8,6.1,11.5,0.6,14.6c-8.6,3.8-9.8-14.4-28.2-9.6
	c-4.2,1-6.1,4.5-7.3,8.3c-3.4,14.1-1.6,14.4,11.4,18.9c5.3,1.6,10.6,3,15.4,5.8c7.6,4.4,13.7,10.2,17.1,18.4
	C219.5,210.1,203.7,238.8,176.7,238.9L176.7,238.9z"/>
<path class="st1" d="M67.3,182.5c12.5-23.5,23.3-48.4,36.8-71.3c2.4-3.9,6.7-7.4,11.2-4.7c5.3,3.3,2.6,9.2,0.4,13.7
	c-6.7,13.4-13.6,26.8-20.3,40.2c-7.4,14.4-13.8,29.4-21.7,43.5c-3.7,6.9-12.5,5.9-15.1-1.4c-13.4-31.5-23-64.4-32.7-97.2
	c-1.4-4.5-0.7-10,4.3-11.5c5.5-1.7,8.8,2.9,10.2,7.7C48.9,128.6,56.4,156.1,67.3,182.5L67.3,182.5z"/>
<path class="st1" d="M131.6,189.4c0,8.7,0,17.4,0,26.1c0.4,5.1-3.8,10.2-9.2,8.7c-5.4-1.2-6-7-5.9-11.6c0.1-12.9,0.1-25.9,0.3-38.9
	c0.1-4,0.6-8,1-12c0.2-1.3,0.7-2.6,1.3-3.7c2.4-5.1,10.5-4.4,11.7,1.4c0.5,2.2,0.7,4.4,0.7,6.6C131.6,173.8,131.5,181.6,131.6,189.4
	C131.6,189.4,131.6,189.4,131.6,189.4z"/>
<path class="st1" d="M137.2,130.3c0,5.1-3.5,8.8-8.1,8.8c-4.7,0-8.7-4-8.7-8.9s3.7-8.7,8.3-8.7C133.4,121.5,137.2,125.4,137.2,130.3
	z"/>
<path class="st0" d="M112.3,303.1c-2.4,19.7-2.8,39.6-4.2,59.4c-0.1,3.1-0.6,8.6-4.1,8.4c-3.1,0.1-3.9-4.7-3.9-7.6
	c-0.1-4.2-0.2-8.4-0.1-12.5c0.2-14.1,1.1-28.2,2.7-42.2c1.1-8.4,1.9-16.9,3.5-25.2c0.6-1.9,1.8-3.2,3.8-3.5c2.1-0.4,3.8,0.4,4.9,2.1
	c1.3,2.1,2.3,4.3,3.2,6.6c3.1,7.7,4.1,15.8,5.4,24c3-5.8,5.2-11.7,8-17.5c1-2.2,2.2-4.3,3.7-6.1c4-4.9,9.8-3.9,11.7,2.1
	c0.8,2.4,1.3,5,1.3,7.6c0.1,12.7,0.1,25.3-0.1,38c-0.2,12.7-0.6,25.3-0.9,38c-0.1,1.8-0.4,3.6-0.9,5.4c-1.1,4.1-6.4,3.8-7.5-0.1
	c-0.4-1.3-0.5-2.7-0.5-4.1c0.3-25.4,0.8-50.6,1-75.9c-0.5,0.7-0.7,1-0.9,1.3c-4.5,9.4-8.7,19-11.5,29c-0.3,1.3-0.8,2.5-1.5,3.6
	c-1.8,3.6-7.5,3-8.4-1c-1.8-9.8-2.7-19.8-4.5-29.6C112.6,303.1,112.5,303.1,112.3,303.1L112.3,303.1z"/>
<path class="st0" d="M86.7,322.8c-4.3-1-8.5-2-13-3.1c0,9.6-0.2,19.1-0.4,28.7c0,1.3-0.2,2.6-0.5,3.9c-0.5,2.9-5.1,3.4-6.2,0.7
	c-0.6-1.3-1.2-2.8-1.2-4.2c-1-22.8-2.4-55.7,9.6-75.8c1.7-2.6,3.7-4.8,7-5.4c4.3-0.8,8.3,1,10,5.4c2.9,7.3,3.9,15.3,4,23.2
	c0.5,20.2-0.7,40.3-1.2,60.5c-0.1,1.7-0.4,3.4-0.9,5c-1.1,3.5-6.4,3.4-7.3-0.4c-0.3-0.9-0.4-1.9-0.4-2.9
	C86.2,346.5,86.8,334.8,86.7,322.8L86.7,322.8z M83.9,276.7c-0.2,0-0.4,0-0.6,0c-6.7,10.3-7.6,22.2-9,34c4.3,1.2,8.4,2.4,12.5,3.6
	C86.7,301.6,87.9,288.8,83.9,276.7L83.9,276.7z"/>
<path class="st0" d="M51.2,342.5c-7.6,3.7-14.4,2.4-19.7-4.5c-5.9-7.7-9.5-16.5-10.3-26.2c-1.3-16.6-0.4-34.5,8.5-49.1
	c4.3-6.9,11.1-9,18.8-6.7c5.9,1.7,12.9,5.7,12.5,12.6c0,2.2-1.1,3.7-2.8,4.1c-1.6,0.4-3-0.4-4-2.5c-1.7-3.9-6.1-5-9.9-6.2
	c-3.3-0.9-6.1,0.4-8.2,3.6c-7.4,11.6-7.9,34.3-5.6,47.6c1,5.7,3.7,10.8,6.7,15.7c1.2,1.9,2.6,3.5,4.8,4.2c2.2,0.8,3.4,0.5,4.8-1.4
	c2.6-3.6,3.5-7.8,3.6-12.2c0-0.4-0.5-1-0.9-1.1c-2.5-0.9-5.1-1.5-7.5-2.5c-4.1-2-2.8-8.2,1.8-8.3c3.2,0.1,6.3,1.3,9.4,1.8
	c2.8,0.5,4.9,2.2,7,3.8c1.5,1.2,1.9,3,1.7,4.9c-0.4,5.2-0.9,10.5-1.4,15.8c-0.5,4-0.4,8.2-1.2,12.1c-1.2,4-7,3.9-7.9-0.1
	C51.4,346.2,51.4,344.4,51.2,342.5L51.2,342.5z"/>
<path class="st0" d="M164.8,334.9c4.8,0.3,8.9,1.8,12.9,3.6c1.3,0.6,2.5,1.6,3.4,2.7c2.2,2.3-0.3,6.7-3.4,5.9
	c-4.2-0.9-8.3-2.1-12.5-3.2c-0.4,11.6,0.5,23.3,0.5,34.9c0,1.4,0.5,2.2,1.9,2.5c3.3,0.8,6.6,1.6,9.9,2.6c3.2,0.8,6.8,2.6,5.5,6.5
	c-0.6,1.8-2.2,3-4.3,2.8c-6.3-0.5-12.4-2.2-18-5.2c-2.2-1.2-3.1-3.4-3.3-5.7c-0.5-5.5-1.2-11.1-1.3-16.6
	c-0.4-21.6-0.1-43.1,1.1-64.6c0.1-2.6,0.5-5.1,1-7.6c0.8-3.6,3.4-5.4,7-4.7c4.7,1,9.3,2.3,14,3.6c3.7,1,5,6,0.9,7.3
	c-4.6,1-8.9-0.8-13.6-1.4C165.8,310.4,165.3,322.6,164.8,334.9L164.8,334.9z"/>
<path class="st0" d="M226.2,368.1c-0.1,7.7-1.6,14.8-6.6,20.9c-3.6,4.3-7.8,7.3-13.6,7.5c-6.2,0.2-11.4-2.4-15.4-7
	c-1.7-2-1.7-4.5-0.2-6.1c2.9-3.1,6.4-0.3,9.1,1.9c4.4,3.2,9.1,2.5,12.6-1.7c2.9-3.5,4.2-7.4,4.6-11.8c0.6-9.7-1.3-21.2-10-26.9
	c-2.3-1.5-4.6-3-6.8-4.6c-4.8-3.6-7.5-8.4-7.6-14.4c-0.1-6.5,0.9-12.9,3.3-19c3.9-9.8,14.8-15.4,23.8-8c1.8,1.6,2.3,3.4,1.5,5
	c-1.4,2.9-5.6,1.6-8.3,0.8c-2.7-0.8-5-0.2-6.5,2.1c-3.8,4.9-4,11.2-4.8,17.1C200.4,339.4,224.5,330.8,226.2,368.1L226.2,368.1z"/>
<path class="st1" d="M345.6,338.4c0-15.9,0-31.8,0-47.6c-0.2-3.2,1.1-6.7,4.8-6.6c2,0.1,3.7,1.6,4.1,3.7c0.4,31.6,0,63.2,0.1,94.7
	c-0.1,3.6,0.4,10.1-4.5,9.9c-2.1-0.1-3.8-1.6-4-4.2c-0.7-16.6-0.1-33.4-0.3-50C345.7,338.4,345.7,338.4,345.6,338.4L345.6,338.4z"/>
<path class="st1" d="M311,351.4c0,15.9,0,31.8,0,47.6c0,1.2-0.1,2.5-0.5,3.7c-1,3.8-6.8,3.8-7.8,0.1c-0.4-1.6-0.5-3.3-0.5-4.9
	c0-24.1,0-48.3,0-72.4c0.1-8-0.2-16.1,0.1-24.1c0.9-5.6,8.3-5.3,8.9,0.3c0.2,16.6,0,33.1,0.1,49.7
	C311.2,351.4,311.1,351.4,311,351.4L311,351.4z"/>
<path class="st1" d="M366.1,349.4c0-10.9,0-21.9,0-32.8c-0.3-2.8,1.5-5.9,4.4-5.8c3.2-0.1,4.9,3.1,4.6,6.2
	c-0.2,20.6-0.4,41.1-0.7,61.7c-0.1,3.6,0.4,9.9-4.5,9.9c-2.2,0-3.8-1.6-4.1-4.2c-0.3-11.6,0-23.3-0.1-34.9
	C365.9,349.4,366,349.4,366.1,349.4L366.1,349.4z"/>
<path class="st1" d="M324.4,374.5c0-6.7,0-13.4,0-20.1c-0.1-3.1,0.8-6.5,4.3-6.6c3.4-0.1,4.9,3,4.6,6.1c-0.4,14.5,0.2,29-0.8,43.4
	c-0.9,4.5-7,4.6-8,0.1c-0.2-0.9-0.3-1.9-0.3-2.9c0-6.7,0-13.4,0-20.1L324.4,374.5L324.4,374.5z"/>
<path class="st1" d="M277.5,388.2c0-6.7,0-13.4,0-20.1c0-1,0.1-2.1,0.4-3c0.5-1.8,2.3-3,4.2-3c3,0,4.6,2.9,4.4,5.7
	c0,13.1,0,26.1-0.1,39.2c0.1,3.2-0.5,7.5-4.4,7.4c-5.3-0.2-4.1-7-4.3-10.8c0-5.1,0-10.2,0-15.3C277.6,388.2,277.6,388.2,277.5,388.2
	L277.5,388.2z"/>
<path class="st0" d="M294.2,212.6c-3.9-4.7-7.7-9.3-11.3-13.7c-2,0.3-3.9,0.8-5.7,0.8c-8.1-0.3-13.8-9.6-8.7-17.1
	c2.1-3.1,4.4-4.9,7.9-5.5c0.4-0.1,1-0.4,1.1-0.8c1.6-3.8,3.2-7.6,4.9-11.4c0.4-0.9,0.2-1.4-0.5-2.1c-10.7-9.7-4.6-24.6,5.3-29.4
	c2.5-1.2,4.9-2.8,7.9-2.6c6.7,0.3,11.9,2.9,15.1,9.1c0.3,0.6,0.6,1.1,0.9,1.7c0,0,0.1,0.1,0.3,0.2c8.4-4.6,17.2-9.1,26-13
	c2.3-1,3.8-1.9,4.3-4.5c0.5-3.4,3.6-5.4,5.9-7.6c3.5-4,7.9-5.2,12.9-3.5c6.1,2.1,13,7.5,11.6,17c-0.9,6-4.7,9.5-10,11.6
	c-1.1,0.4-1.5,1-1.7,2.2c-1.6,8.8-3.3,17.6-5,26.3c-0.2,1.3-0.1,2,1,2.9c5.8,4.6,6.7,10.6,2.7,17.4c4.1,5,8.1,10.2,12.2,15.2
	c0.3,0.4,1.1,0.6,1.7,0.6c6.7-0.2,11.8,5.7,10.5,12.2c-0.9,4.6-6.7,9.1-12,9.2c-5,0.1-9.5-3.5-10.6-8.6c-0.6-2.8-0.1-5.5,1.6-7.8
	c0.8-1.1,0.6-1.7-0.1-2.6c-3.3-4.2-6.6-8.2-9.6-12.7c-3.2,1.6-6.6,2-10.2,1.1c-0.3-0.1-0.9,0.2-1.2,0.5
	c-6.9,5.8-13.8,11.6-20.6,17.4c-0.4,0.3-0.4,1.1-0.5,1.6c-0.2,2-0.1,4-0.5,6c-0.7,3.5-2.8,6.2-5.9,7.9c-9,5.3-23,1.3-21.8-10.8
	C292.4,217.3,292,214.5,294.2,212.6L294.2,212.6z M334.6,191.6c-1.5-2.4-2.5-5-2.2-7.8c0.1-1.1-0.3-1.6-1.2-2.1
	c-9.8-4.9-18.7-10.7-27.9-16.9c-3.5,2.2-7.8,2.8-12.2,2.3c-0.4,0-1.1,0.2-1.2,0.5c-1.8,3.6-3.5,7.2-5.2,10.9c5.9,3,7.1,9.8,3.9,15.1
	c4,4.3,8,8.5,11.8,12.7c0.6,0.7,1.1,0.7,2,0.5c2.1-0.4,4.3-0.9,6.4-0.5c2.4,0.4,4.7,1.6,6.9,2.4
	C321.9,203.1,328.2,197.5,334.6,191.6L334.6,191.6z M341.4,134.5c-9.5,4.4-18.8,9.3-28.1,13.8c-0.4,0.2-0.9,0.7-0.9,1.1
	c-0.1,3.4-1.1,6.5-3.2,9.7c9.2,5.2,18.4,10.4,27.5,15.6c2.4-2.4,5.3-3.5,8.4-4.1c1.2-0.2,1.5-0.7,1.8-1.8c1.7-8.7,3.7-17.4,5.6-26.1
	C347.3,140.3,343.7,137.6,341.4,134.5L341.4,134.5z M303.7,148.7c0.1-5.6-3.8-9.4-10.2-9.2c-5.2,0.2-8.6,3.6-9,10.4
	c-0.3,4.9,3.8,8.6,9.3,8.6C299.3,158.6,303.6,154.4,303.7,148.7L303.7,148.7z M356.1,133.9c4.8,0.1,8.1-3.6,7-7.5
	c-0.7-2.3-2.6-3.4-4.5-4.4c-4.9-2.7-10.1,3.2-9,8.1C350,133.1,353.9,133.4,356.1,133.9L356.1,133.9z M347.5,178.9
	c-3.3,0.5-5.5,0.9-6.1,4.5c-0.4,1.9,0.5,3.4,2,4.4c3,2,8.6-0.6,9-4.2C352.7,180.9,350.1,178.8,347.5,178.9z M305.5,223.8
	c3.1-0.3,5.9-1.2,5.8-5.2c-0.2-3.7-4.6-4.1-7.6-3.3c-1.8,0.4-3.3,3.8-2.9,6C301.1,222.9,302.6,223.8,305.5,223.8L305.5,223.8z
	 M277.7,184.9c-2.2-0.1-3.2,0.9-3.3,3c-0.1,1.7,1.4,3.2,3.1,3.3c1.9,0.1,4.3-2,4.4-3.7C282,186,280.3,185,277.7,184.9L277.7,184.9z
	 M372,214.9c-0.7,0.4-1.8,0.7-2.5,1.3c-0.2,0.2,0.3,1.6,0.8,2.1c0.9,1,2,0.3,3-0.2C376.2,216.5,374.8,215.4,372,214.9L372,214.9z"/>
<path class="st0" d="M145.9,62.9c-5.6,0-10.6-0.7-15.4-2.3c-6.1-1.8-4.3-8.2,1.8-6.8c5,1.1,10.1,2,15.2,1.5
	c5.1-0.5,10.2-1.4,15.3-2.1c2.3-0.5,5.5-0.7,6.2,2.2c0.9,3-2.2,4.5-4.6,5.1C158.1,62.1,151.7,62.9,145.9,62.9L145.9,62.9z"/>
<path class="st0" d="M251.9,84.6c-8.8-0.5-16.9-1.7-24-6.5c-2.4-1.8-6.9-4.5-4.8-7.9c0.9-1.4,2.6-2.1,4.4-1.4
	c1.4,0.5,2.7,1.3,3.9,2.1c6.9,4.6,14.8,5,22.7,5.8c4.5,0.9,4.5,6.8,0,7.7C253.2,84.5,252.3,84.5,251.9,84.6L251.9,84.6z"/>
<path class="st0" d="M279.9,82.2c-2.1-0.3-3.4-1.2-3.9-2.7c-1-2.9,3.1-4.9,5.6-5.3c3.5-0.6,5.4,4.6,2.3,6.3
	C282.7,81.3,281.2,81.7,279.9,82.2L279.9,82.2z"/>
<path class="st0" d="M267.2,76.4c2.2,0,4.3,1.9,4.4,4c0,2-1.7,3.8-3.8,3.8C262.8,84.2,261.7,76.8,267.2,76.4L267.2,76.4z"/>
<path class="st0" d="M124.8,52.9c-0.1,4.9-7.3,4.9-7.3,0C117.7,48.1,124.7,48.1,124.8,52.9z"/>
<path class="st0" d="M174.1,55.9c-4.8-0.4-4.2-7.3,0.4-7.2C179.3,49.1,178.9,55.9,174.1,55.9z"/>
</svg>
